# xmcd
#
# Track frame offsets: 
#        150
#        17270
#        31494
#        44464
#        62900
#        81627
#        102875
#        122320
#        137367
#        156297
#        172240
#        194800
#        212002
#        230182
#        243350
#        263012
#        277267
#        296985
#        313747
#        338757
#
# Disc length: 4775 seconds
#
# Revision: 3
# Processed by: cddbd v1.5.2PL0 Copyright (c) Steve Scherf et al.
# Submitted via: ExactAudioCopyFreeDBPlugin 1.0
#
DISCID=3512a514
DTITLE=Pussycat - The Complete Collection CD 2
DYEAR=2004
DGENRE=Pop-Folk
TTITLE0=Daddy
TTITLE1=Let Freedom Range
TTITLE2=Stranger In Town
TTITLE3=On The Corner Of My Life
TTITLE4=Doin' La Bamba
TTITLE5=Then The Music Stopped
TTITLE6=Rio
TTITLE7=Une Chambre Pour La Nuit
TTITLE8=Blue Lights In My Eyes
TTITLE9=Teenage Queenie
TTITLE10=Cha Cha Me Baby
TTITLE11=Take A Look At Me
TTITLE12=If You Go
TTITLE13=Lovers Of A Kind
TTITLE14=Chicano
TTITLE15=Chez Louis
TTITLE16=Roll On Sweet Mississippi
TTITLE17=Light Of A Gipsy
TTITLE18=You
TTITLE19=Text
EXTD=3 deutschgesungene titel fehlen.gkm
EXTT0=
EXTT1=
EXTT2=
EXTT3=
EXTT4=
EXTT5=
EXTT6=
EXTT7=
EXTT8=
EXTT9=
EXTT10=
EXTT11=
EXTT12=
EXTT13=
EXTT14=
EXTT15=
EXTT16=
EXTT17=
EXTT18=
EXTT19=
PLAYORDER=
